<?xml version="1.0" encoding="UTF-8"?>
<svg version="1.1" xmlns="http://www.w3.org/2000/svg" width="1080" height="607">
<path d="M0 0 C356.4 0 712.8 0 1080 0 C1080 200.31 1080 400.62 1080 607 C723.6 607 367.2 607 0 607 C0 406.69 0 206.38 0 0 Z " fill="#D0131A" transform="translate(0,0)"/>
<path d="M0 0 C1.00040817 0.11775284 1.00040817 0.11775284 2.02102661 0.23788452 C12.11456519 1.45245582 21.77146286 3.60355623 31.5625 6.25 C32.440271 6.48412598 33.31804199 6.71825195 34.22241211 6.95947266 C43.29963654 9.4320566 51.96870268 12.39691247 60.5625 16.25 C62.06721233 16.89438861 63.57246621 17.53751346 65.078125 18.1796875 C88.14874286 28.13879946 109.13276166 41.23024661 127.98754883 57.86328125 C129.13312387 58.87194134 130.28484498 59.8736342 131.44018555 60.87109375 C144.18422261 71.90098441 155.39089977 83.78005489 165.26123047 97.44921875 C166.33600802 98.9365657 167.43273956 100.40802175 168.53515625 101.875 C176.53960187 112.77467063 183.02380016 124.98656512 189.1875 137 C189.51806396 137.6305127 189.84862793 138.26102539 190.18920898 138.91064453 C192.2863074 143.10259667 193.12595782 146.64860946 193.5625 151.25 C194.2225 151.25 194.8825 151.25 195.5625 151.25 C197.93493567 158.23728314 200.26279793 165.23845811 202.5625 172.25 C202.96339844 173.46042969 203.36429688 174.67085937 203.77734375 175.91796875 C207.23199818 187.08663067 208.92790738 198.69494574 210.5625 210.25 C210.72480103 211.37535156 210.72480103 211.37535156 210.89038086 212.5234375 C211.88546023 220.67580947 211.74856197 228.90568582 211.74780273 237.10546875 C211.74997201 239.71631615 211.76813001 242.32672795 211.78710938 244.9375 C211.82416221 256.17938288 211.044199 267.10963263 209.5625 278.25 C209.42755127 279.32822021 209.29260254 280.40644043 209.15356445 281.51733398 C207.96844616 290.5783565 205.00360042 299.24318607 202.28222656 307.93505859 C201.66939429 309.90618329 201.07845516 311.88409298 200.4921875 313.86328125 C186.70434874 360.38275404 155.48686301 404.39868228 116.22607422 433.03515625 C114.55468631 434.25570603 112.90412497 435.50102809 111.25390625 436.75 C92.23895808 450.94616727 70.85210456 461.27739585 48.5625 469.25 C46.90347656 469.86101562 46.90347656 469.86101562 45.2109375 470.484375 C37.90545249 473.06278147 30.54273408 475.10735009 23 476.875 C22.19377197 477.06900391 21.38754395 477.26300781 20.55688477 477.46289062 C3.71579242 481.25209626 -13.1584533 482.73809365 -30.3894043 482.58618164 C-33.26704629 482.56235888 -36.14376683 482.56568826 -39.02148438 482.57226562 C-53.36438451 482.55068965 -67.54104375 481.93389 -81.43359375 478.03125 C-84.00003184 477.36377585 -86.53430924 476.83074995 -89.13671875 476.33203125 C-102.28813299 473.74852096 -115.24661067 469.80966673 -127.4375 464.25 C-128.82309402 463.65622269 -130.20991401 463.06530163 -131.59765625 462.4765625 C-155.63800746 452.1865146 -178.14976623 438.06607339 -197.328125 420.20703125 C-199.25322745 418.42096398 -201.22688599 416.73545966 -203.25 415.0625 C-206.39891619 412.39292702 -208.84298616 409.45900396 -211.4375 406.25 C-212.20707031 405.48300781 -212.97664063 404.71601563 -213.76953125 403.92578125 C-223.10037439 394.56761499 -230.74326324 383.9353283 -238.18798828 373.06494141 C-239.1906879 371.60849964 -240.21496442 370.16692322 -241.24609375 368.73046875 C-273.51461913 322.99486231 -283.05677606 259.55075616 -275.4375 205.25 C-275.34098145 204.51104492 -275.24446289 203.77208984 -275.14501953 203.01074219 C-270.39778608 167.29346197 -255.65237397 131.30478095 -234.4375 102.25 C-234.03853516 101.70230957 -233.63957031 101.15461914 -233.22851562 100.59033203 C-219.79275279 82.32440164 -204.48086589 65.0681889 -186.4375 51.25 C-185.53128906 50.5384375 -184.62507813 49.826875 -183.69140625 49.09375 C-159.77248595 30.6596296 -133.12962322 16.94025199 -104.1875 8.3671875 C-101.88423944 7.68100779 -99.58960837 6.96383657 -97.3125 6.1953125 C-84.75081472 2.144169 -71.49102874 0.86371899 -58.4375 -0.75 C-57.58293213 -0.85675049 -56.72836426 -0.96350098 -55.84790039 -1.07348633 C-37.34804633 -3.16470847 -18.43697649 -2.23937705 0 0 Z " fill="#D0141B" transform="translate(570.4375,69.75)"/>
<path d="M0 0 C1.00040817 0.11775284 1.00040817 0.11775284 2.02102661 0.23788452 C12.11456519 1.45245582 21.77146286 3.60355623 31.5625 6.25 C32.440271 6.48412598 33.31804199 6.71825195 34.22241211 6.95947266 C43.29963654 9.4320566 51.96870268 12.39691247 60.5625 16.25 C62.06721233 16.89438861 63.57246621 17.53751346 65.078125 18.1796875 C88.14874286 28.13879946 109.13276166 41.23024661 127.98754883 57.86328125 C129.13312387 58.87194134 130.28484498 59.8736342 131.44018555 60.87109375 C144.18422261 71.90098441 155.39089977 83.78005489 165.26123047 97.44921875 C166.33600802 98.9365657 167.43273956 100.40802175 168.53515625 101.875 C176.53960187 112.77467063 183.02380016 124.98656512 189.1875 137 C189.51806396 137.6305127 189.84862793 138.26102539 190.18920898 138.91064453 C192.2863074 143.10259667 193.12595782 146.64860946 193.5625 151.25 C194.2225 151.25 194.8825 151.25 195.5625 151.25 C197.93493567 158.23728314 200.26279793 165.23845811 202.5625 172.25 C202.96339844 173.46042969 203.36429688 174.67085937 203.77734375 175.91796875 C207.23199818 187.08663067 208.92790738 198.69494574 210.5625 210.25 C210.72480103 211.37535156 210.72480103 211.37535156 210.89038086 212.5234375 C211.88546023 220.67580947 211.74856197 228.90568582 211.74780273 237.10546875 C211.74997201 239.71631615 211.76813001 242.32672795 211.78710938 244.9375 C211.82416221 256.17938288 211.044199 267.10963263 209.5625 278.25 C209.42755127 279.32822021 209.29260254 280.40644043 209.15356445 281.51733398 C207.96844616 290.5783565 205.00360042 299.24318607 202.28222656 307.93505859 C201.66939429 309.90618329 201.07845516 311.88409298 200.4921875 313.86328125 C186.70434874 360.38275404 155.48686301 404.39868228 116.22607422 433.03515625 C114.55468631 434.25570603 112.90412497 435.50102809 111.25390625 436.75 C92.23895808 450.94616727 70.85210456 461.27739585 48.5625 469.25 C46.90347656 469.86101562 46.90347656 469.86101562 45.2109375 470.484375 C37.90545249 473.06278147 30.54273408 475.10735009 23 476.875 C22.19377197 477.06900391 21.38754395 477.26300781 20.55688477 477.46289062 C3.71579242 481.25209626 -13.1584533 482.73809365 -30.3894043 482.58618164 C-33.26704629 482.56235888 -36.14376683 482.56568826 -39.02148438 482.57226562 C-53.36438451 482.55068965 -67.54104375 481.93389 -81.43359375 478.03125 C-84.00003184 477.36377585 -86.53430924 476.83074995 -89.13671875 476.33203125 C-102.28813299 473.74852096 -115.24661067 469.80966673 -127.4375 464.25 C-128.82309402 463.65622269 -130.20991401 463.06530163 -131.59765625 462.4765625 C-155.63800746 452.1865146 -178.14976623 438.06607339 -197.328125 420.20703125 C-199.25322745 418.42096398 -201.22688599 416.73545966 -203.25 415.0625 C-206.39891619 412.39292702 -208.84298616 409.45900396 -211.4375 406.25 C-212.20707031 405.48300781 -212.97664063 404.71601563 -213.76953125 403.92578125 C-223.10037439 394.56761499 -230.74326324 383.9353283 -238.18798828 373.06494141 C-239.1906879 371.60849964 -240.21496442 370.16692322 -241.24609375 368.73046875 C-273.51461913 322.99486231 -283.05677606 259.55075616 -275.4375 205.25 C-275.34098145 204.51104492 -275.24446289 203.77208984 -275.14501953 203.01074219 C-270.39778608 167.29346197 -255.65237397 131.30478095 -234.4375 102.25 C-234.03853516 101.70230957 -233.63957031 101.15461914 -233.22851562 100.59033203 C-219.79275279 82.32440164 -204.48086589 65.0681889 -186.4375 51.25 C-185.53128906 50.5384375 -184.62507813 49.826875 -183.69140625 49.09375 C-159.77248595 30.6596296 -133.12962322 16.94025199 -104.1875 8.3671875 C-101.88423944 7.68100779 -99.58960837 6.96383657 -97.3125 6.1953125 C-84.75081472 2.144169 -71.49102874 0.86371899 -58.4375 -0.75 C-57.58293213 -0.85675049 -56.72836426 -0.96350098 -55.84790039 -1.07348633 C-37.34804633 -3.16470847 -18.43697649 -2.23937705 0 0 Z M-66.4375 41.25 C-68.22855843 41.56344886 -70.02528666 41.84483049 -71.82421875 42.109375 C-78.12324925 43.12743808 -84.14068304 44.67749366 -90.25 46.5 C-91.81911133 46.96515015 -91.81911133 46.96515015 -93.41992188 47.43969727 C-122.83826312 56.32289157 -148.75196425 71.41332474 -171.25390625 92.27734375 C-172.79137319 93.66628973 -174.38396485 94.99539493 -176.01171875 96.27734375 C-178.17443599 98.03607516 -179.89816434 99.75129353 -181.6875 101.875 C-184.28548062 104.92650741 -186.95555521 107.88053782 -189.6875 110.8125 C-198.31488756 120.39848618 -205.59324839 130.75684781 -211.4375 142.25 C-212.66390795 144.50150488 -213.89316787 146.75145819 -215.125 149 C-217.49280905 153.33281841 -219.53980785 157.69152257 -221.4375 162.25 C-221.92089844 163.384375 -222.40429688 164.51875 -222.90234375 165.6875 C-226.50039741 174.39154493 -229.28049544 183.06575924 -231.4375 192.25 C-231.61555176 193.00313477 -231.79360352 193.75626953 -231.97705078 194.53222656 C-232.53545465 196.91533599 -233.08319678 199.30056403 -233.625 201.6875 C-233.79209473 202.42073486 -233.95918945 203.15396973 -234.13134766 203.90942383 C-234.3660376 204.97326294 -234.3660376 204.97326294 -234.60546875 206.05859375 C-234.74235107 206.67532959 -234.8792334 207.29206543 -235.02026367 207.92749023 C-236.22137613 214.61337836 -236.61723916 221.1398166 -236.67578125 227.91796875 C-236.683853 228.83347 -236.69192474 229.74897125 -236.70024109 230.69221497 C-236.71401103 232.62771761 -236.72476455 234.5632438 -236.73266602 236.4987793 C-236.74408516 238.43472664 -236.76437318 240.37064508 -236.79418945 242.30639648 C-237.09329741 261.79854362 -233.71330206 279.55095473 -228.4375 298.25 C-228.20417969 299.2090625 -227.97085938 300.168125 -227.73046875 301.15625 C-225.88710036 308.65908276 -222.77765843 315.30553796 -219.4375 322.25 C-218.64273633 324.06114413 -217.85092582 325.8735879 -217.0625 327.6875 C-205.65132859 352.68339927 -186.93372108 377.13762365 -165.4375 394.25 C-164.92719238 394.6620166 -164.41688477 395.0740332 -163.89111328 395.49853516 C-146.02240223 409.9094364 -125.49758376 423.33564539 -103.4375 430.25 C-101.88990305 430.78437204 -100.34310986 431.32107436 -98.796875 431.859375 C-93.05727949 433.82364888 -87.2713031 435.58751725 -81.4375 437.25 C-80.50679687 437.51554687 -79.57609375 437.78109375 -78.6171875 438.0546875 C-49.08051136 446.0353493 -13.84136749 445.38579108 15.5625 437.25 C16.48756348 437.00411133 17.41262695 436.75822266 18.36572266 436.50488281 C28.39845112 433.80762845 38.11431611 430.59762189 47.5625 426.25 C48.88801687 425.65884527 50.21353801 425.06770013 51.5390625 424.4765625 C71.24244403 415.56906227 88.73724524 404.00901419 104.5625 389.25 C105.95378571 388.03643327 107.34940019 386.82780518 108.75 385.625 C138.93013845 359.18719871 160.68321573 318.6456528 167.5625 279.25 C167.61865762 277.25078858 167.63984149 275.24850401 167.5625 273.25 C168.2225 273.25 168.8825 273.25 169.5625 273.25 C172.88362998 242.74595106 176.10072621 197.41055032 158.5625 170.25 C157.839197 168.38851833 157.15462977 166.51172762 156.5 164.625 C151.15145558 150.46897226 143.51755151 137.23790076 134.75537109 124.93066406 C133.65630017 123.38215726 132.58646594 121.81300913 131.51953125 120.2421875 C110.32150476 90.66534179 79.60665428 68.66693051 46.5625 54.25 C44.82033203 53.48042969 44.82033203 53.48042969 43.04296875 52.6953125 C34.87095749 49.30177247 26.30489824 46.32885121 17.58984375 44.70703125 C15.5625 44.25 15.5625 44.25 12.99584961 43.32202148 C-0.90687164 38.98106657 -15.76441082 38.81040799 -30.19580078 38.96875 C-33.09550753 39.00035982 -35.99466775 39.00978929 -38.89453125 39.015625 C-40.77604822 39.02478275 -42.65755975 39.03515456 -44.5390625 39.046875 C-45.81120102 39.05324982 -45.81120102 39.05324982 -47.10903931 39.05975342 C-57.05240279 38.80692183 -57.05240279 38.80692183 -66.4375 41.25 Z " fill="#FEFBFB" transform="translate(570.4375,69.75)"/>
<path d="M0 0 C2.80969467 1.28022875 4.8539238 2.60714129 7.02441406 4.79736328 C7.58469299 5.35779327 8.14497192 5.91822327 8.722229 6.49563599 C9.31404968 7.09777924 9.90587036 7.69992249 10.515625 8.3203125 C11.13145447 8.93897186 11.74728394 9.55763123 12.3817749 10.19503784 C14.34260336 12.16703814 16.29635301 14.14588737 18.25 16.125 C19.58026799 17.46530164 20.910992 18.80515083 22.2421875 20.14453125 C25.5001015 23.42446589 28.75168533 26.71055942 32 30 C31.67 30.99 31.34 31.98 31 33 C30.34 33 29.68 33 29 33 C28.61415222 33.89222983 28.61415222 33.89222983 28.22050953 34.80248451 C26.88799298 37.20166754 25.58662288 38.429567 23.47184753 40.1602478 C18.54087504 44.33892126 14.00912273 48.8581084 9.45043945 53.43603516 C8.5307135 54.35561508 7.61098755 55.27519501 6.66339111 56.22264099 C4.16343194 58.72231554 1.66654934 61.22504222 -0.82975745 63.72836351 C-3.45344365 66.35834822 -6.08000734 68.98545614 -8.70625305 71.61288452 C-13.67444396 76.58417311 -18.6400836 81.55800186 -23.60478956 86.53277051 C-29.24069701 92.17985496 -34.8794412 97.82410318 -40.51843202 103.46810842 C-50.16047209 113.11881816 -59.80039639 122.7716365 -69.4379425 132.42683411 C-70.97607323 133.96776207 -72.51435448 135.50853979 -74.05283165 137.04912186 C-75.23457803 138.23311973 -76.41559183 139.41785023 -77.5952549 140.6039238 C-80.84584655 143.86911488 -84.24931097 146.90784902 -87.71875 149.9375 C-90.23486586 152.21234448 -92.60491303 154.59746352 -95 157 C-97.36379932 159.34383828 -99.73291362 161.68229767 -102.10107422 164.02172852 C-109.15625197 170.99535741 -116.19880083 177.98159979 -123.2342205 184.97515965 C-127.48816455 189.20290296 -131.74670132 193.42580625 -136.015625 197.63842773 C-140.14952758 201.71816862 -144.27124171 205.80985864 -148.38464737 209.91026115 C-149.95525059 211.47160744 -151.53025656 213.02853744 -153.10964584 214.58099556 C-155.30988786 216.74515333 -157.49419455 218.9242405 -159.67529297 221.10766602 C-160.33493546 221.74933212 -160.99457794 222.39099823 -161.67420959 223.05210876 C-162.26301407 223.64778656 -162.85181854 224.24346436 -163.45846558 224.85719299 C-163.97647169 225.37059014 -164.49447781 225.88398729 -165.02818108 226.41294193 C-166.21548918 227.98747958 -166.21548918 227.98747958 -165.76921272 230.06774807 C-164.69749034 232.75990017 -163.05670399 234.22801856 -160.96484375 236.22265625 C-160.15595703 237.00833984 -159.34707031 237.79402344 -158.51367188 238.60351562 C-157.66353516 239.41498047 -156.81339844 240.22644531 -155.9375 241.0625 C-154.25235584 242.67133574 -152.57360923 244.28690797 -150.90234375 245.91015625 C-150.15460693 246.62308838 -149.40687012 247.33602051 -148.63647461 248.07055664 C-147 250 -147 250 -147 253 C-172.08 253 -197.16 253 -223 253 C-223 227.92 -223 202.84 -223 177 C-215.27136208 180.86431896 -209.14627637 187.47003139 -203.4375 193.875 C-201.30089816 196.23937453 -201.30089816 196.23937453 -199.11645508 195.88549805 C-196.3375883 194.72285532 -194.79646982 193.11766015 -192.69921875 190.95703125 C-191.88646484 190.13009766 -191.07371094 189.30316406 -190.23632812 188.45117188 C-188.9746582 187.1450293 -188.9746582 187.1450293 -187.6875 185.8125 C-177.60750924 175.46621578 -177.60750924 175.46621578 -172.67895508 171.45581055 C-170.33440339 169.4228657 -168.18705971 167.19920837 -166 165 C-164.67879963 163.67616594 -163.35738279 162.3525479 -162.03581238 161.02908325 C-160.45640382 159.44664182 -158.87700267 157.864193 -157.29760742 156.28173828 C-148.46734471 147.43509118 -139.63451968 138.5910073 -130.80021191 129.74839973 C-125.459114 124.40214715 -120.11896193 119.0549561 -114.78100586 113.70556641 C-110.11000288 109.02456392 -105.43721595 104.34535072 -100.76232225 99.66823375 C-98.2938019 97.19841677 -95.82615084 94.72774588 -93.3606472 92.25491714 C-90.60671502 89.49286737 -87.84880151 86.73481367 -85.09057617 83.97705078 C-84.28562714 83.16850647 -83.4806781 82.35996216 -82.65133667 81.5269165 C-78.45024833 77.33341653 -74.17694776 73.3214599 -69.62572193 69.50861931 C-67.76455484 67.89880421 -67.76455484 67.89880421 -66 65 C-65.34 65 -64.68 65 -64 65 C-63.67 64.01 -63.34 63.02 -63 62 C-61.6027832 60.62278748 -61.6027832 60.62278748 -59.73828125 59.10717773 C-53.54945534 53.85064071 -47.91149261 48.03509912 -42.1875 42.28515625 C-40.96604016 41.06182777 -39.74435671 39.83872252 -38.52246094 38.61582947 C-35.3310039 35.42058239 -32.14256333 32.22234214 -28.95477295 29.0234375 C-25.69174138 25.75011567 -22.42582256 22.47967726 -19.16015625 19.20898438 C-12.77063203 12.80878491 -6.38429549 6.40541493 0 0 Z " fill="#FEFBFB" transform="translate(680,217)"/>
<path d="M0 0 C4.10570389 1.8850059 6.88604614 4.64833751 10.0078125 7.84765625 C10.57450653 8.41955185 11.14120056 8.99144745 11.72506714 9.58067322 C13.52987272 11.40325225 15.32783318 13.23239074 17.125 15.0625 C18.93017315 16.89528621 20.73678389 18.72659529 22.5463562 20.55503845 C23.67097536 21.69192031 24.79291063 22.83146458 25.91189575 23.97389221 C28.68030188 26.84743614 28.68030188 26.84743614 32 29 C31.43999183 32.47205066 30.4463754 33.80483615 27.6875 35.9375 C24.66512508 38.38242931 22.42315451 40.95151529 20 44 C18.01739574 45.68732277 16.0167658 47.35366057 14 49 C11.52279765 51.35924033 9.26298208 53.65540279 7.1875 56.375 C5.30913234 58.62904119 3.51616012 60.34571388 1.29672241 62.23573303 C-2.6140255 65.62459495 -6.29825583 69.17460165 -9.93505859 72.85327148 C-10.57674988 73.49802933 -11.21844116 74.14278717 -11.87957764 74.80708313 C-13.25670466 76.19130311 -14.63269756 77.57665219 -16.00764084 78.96304131 C-18.18197574 81.15490232 -20.35995311 83.34308367 -22.53897095 85.5302887 C-28.72803816 91.74370768 -34.91128319 97.96289777 -41.09033203 104.1862793 C-44.88193001 108.00457371 -48.67831538 111.8180527 -52.47774124 115.62855721 C-53.92377859 117.0808167 -55.36791391 118.53497259 -56.81013107 119.99102592 C-58.81604104 122.01603366 -60.8279264 124.03491577 -62.84130859 126.05249023 C-63.43869843 126.65864166 -64.03608826 127.26479309 -64.65158081 127.88931274 C-68.77210088 132 -68.77210088 132 -71 132 C-71.33 132.99 -71.66 133.98 -72 135 C-73.38967542 136.20017423 -74.78209326 137.39983005 -76.234375 138.5234375 C-78.64311243 140.53782412 -80.79632997 142.7637313 -83 145 C-86.66666667 148.66666667 -90.33333333 152.33333333 -94 156 C-94.74218781 156.74382431 -95.48437561 157.48764862 -96.24905396 158.25401306 C-99.39957411 161.39885381 -102.56588586 164.52732953 -105.73388672 167.65454102 C-112.38990517 174.22904761 -119.03332667 180.81613389 -125.66961479 187.41055393 C-129.6814274 191.39616321 -133.69782761 195.37692273 -137.72460938 199.34741211 C-141.62509595 203.19373293 -145.51338308 207.05199945 -149.3933754 210.91898918 C-150.87466431 212.39102256 -152.36035494 213.85863988 -153.85042953 215.32177925 C-155.92615139 217.36141075 -157.98590137 219.41594751 -160.04248047 221.47485352 C-160.66472 222.07911667 -161.28695953 222.68337982 -161.92805481 223.30595398 C-163.80967102 225.15128786 -163.80967102 225.15128786 -166 228 C-165.54541293 231.85844983 -163.75860397 233.60409692 -161.03515625 236.29296875 C-160.23529297 237.08767578 -159.43542969 237.88238281 -158.61132812 238.70117188 C-157.77021484 239.52166016 -156.92910156 240.34214844 -156.0625 241.1875 C-154.80663086 242.43563477 -154.80663086 242.43563477 -153.52539062 243.70898438 C-149.61973096 247.83168347 -149.61973096 247.83168347 -145 251 C-145 251.66 -145 252.32 -145 253 C-152.65980204 253.02341408 -160.31960026 253.04106043 -167.9794302 253.05181217 C-171.53813907 253.05697858 -175.09682303 253.06395913 -178.65551758 253.07543945 C-182.10500894 253.08649483 -185.55447671 253.09232348 -189.00398445 253.09487724 C-190.927179 253.09756011 -192.85036438 253.10533372 -194.77354431 253.11329651 C-204.25596271 253.11388358 -213.48696602 252.55959023 -223 252 C-223 226.59 -223 201.18 -223 175 C-215.1373494 181.7394148 -215.1373494 181.7394148 -211.88671875 185.05078125 C-211.19642578 185.74880859 -210.50613281 186.44683594 -209.79492188 187.16601562 C-208.75174805 188.22852539 -208.75174805 188.22852539 -207.6875 189.3125 C-206.27705975 190.7483765 -204.8644085 192.18208559 -203.44921875 193.61328125 C-202.83393311 194.24016846 -202.21864746 194.86705566 -201.5847168 195.51293945 C-200.05219373 197.09303784 -200.05219373 197.09303784 -198 198 C-198 197.34 -198 196.68 -198 196 C-197.34 196 -196.68 196 -196 196 C-195.731875 195.360625 -195.46375 194.72125 -195.1875 194.0625 C-194 192 -194 192 -191 191 C-190.67 190.01 -190.34 189.02 -190 188 C-188.52847099 186.54903316 -188.52847099 186.54903316 -186.60617065 184.97605896 C-181.21654062 180.39779723 -176.28084627 175.39766395 -171.30126953 170.38305664 C-170.24939409 169.32761775 -169.19727848 168.27241818 -168.14494324 167.21743774 C-165.89500358 164.96099065 -163.64658529 162.70304269 -161.39932632 160.44392586 C-157.84762708 156.87383205 -154.29149409 153.30817673 -150.73458862 149.74327087 C-140.62656983 139.61117096 -130.52458672 129.47306548 -120.42675781 119.33081055 C-114.83794909 113.71749176 -109.24558175 108.10774298 -103.64934051 102.50183386 C-100.10993107 98.95587212 -96.57508016 95.40544618 -93.04350591 91.85168183 C-90.85377155 89.65025845 -88.65990724 87.45298828 -86.46482277 85.25690079 C-85.44475587 84.23467819 -84.42642113 83.21072387 -83.40991402 82.18496132 C-82.02747241 80.79041587 -80.63833252 79.40251989 -79.24880981 78.01502991 C-78.08357882 76.84508531 -78.08357882 76.84508531 -76.89480782 75.65150547 C-75 74 -75 74 -73 74 C-73 73.34 -73 72.68 -73 72 C-72.34 72 -71.68 72 -71 72 C-70.60530518 71.09889244 -70.60530518 71.09889244 -70.20263672 70.17958069 C-68.9273112 67.86826354 -67.79974538 66.77141212 -65.7578125 65.12670898 C-59.08708373 59.47282079 -53.04100659 53.16377783 -46.875 46.97265625 C-45.51901842 45.61480652 -44.1628136 44.25717967 -42.80639648 42.89976501 C-39.2598394 39.34941401 -35.71629739 35.79606883 -32.17340088 32.24206543 C-28.5484264 28.60680922 -24.92057251 24.97442901 -21.29296875 21.34179688 C-14.19251099 14.23065698 -7.09523903 7.1163467 0 0 Z " fill="#FEFCFC" transform="translate(599,137)"/>
<path d="M0 0 C5.29108961 0.72883883 10.5517357 1.57833965 15.8125 2.5 C16.9562207 2.69529297 16.9562207 2.69529297 18.12304688 2.89453125 C23.76422194 3.88211097 23.76422194 3.88211097 26 5 C35.66382958 6.2948338 45.51468643 6.30318799 55.25 6.5625 C56.78516475 6.60581949 58.32032112 6.64943737 59.85546875 6.69335938 C63.57022235 6.79900443 67.2850723 6.90064134 71 7 C71.33 6.34 71.66 5.68 72 5 C77.94 5.33 83.88 5.66 90 6 C90 6.33 90 6.66 90 7 C83.30637086 8.54473918 76.95723083 9.326058 70.09375 9.37109375 C69.17853577 9.38207092 68.26332153 9.3930481 67.32037354 9.40435791 C64.38008845 9.43092994 61.44039949 9.43735019 58.5 9.4375 C57.49843872 9.43956451 56.49687744 9.44162903 55.46496582 9.4437561 C36.17546058 9.4366147 18.28813615 7.45810333 0 1 C0 0.67 0 0.34 0 0 Z " fill="#CD3E42" transform="translate(480,503)"/>
<path d="M0 0 C0.495 0.99 0.495 0.99 1 2 C-3.2514393 6.99544118 -7.64540876 11.71464579 -12.3984375 16.23828125 C-14.22904557 18.01353029 -14.22904557 18.01353029 -15 21 C-16.33035723 21.67258595 -17.66435189 22.33798311 -19 23 C-20.69247643 24.55487672 -22.33474465 26.16529226 -23.9375 27.8125 C-25.18853516 29.09060547 -25.18853516 29.09060547 -26.46484375 30.39453125 C-27.71974609 31.68423828 -27.71974609 31.68423828 -29 33 C-29.85722656 33.8559375 -30.71445312 34.711875 -31.59765625 35.59375 C-33.03020075 37.02862384 -34.45044518 38.47621217 -35.84375 39.94921875 C-38.99041735 43.25173519 -41.46542088 45.7632966 -46 47 C-41.18562562 41.20164104 -36.00751568 35.87718215 -30.6640625 30.56640625 C-29.78471039 29.68846909 -28.90535828 28.81053192 -27.99935913 27.9059906 C-25.21025942 25.12245588 -22.41768982 22.34243231 -19.625 19.5625 C-17.7247458 17.66783335 -15.82525347 15.7724037 -13.92578125 13.87695312 C-9.28649396 9.24864839 -4.64435833 4.62321579 0 0 Z " fill="#FEE2E1" transform="translate(573,323)"/>
<path d="M0 0 C0.66 0 1.32 0 2 0 C1.87769378 1.58354369 1.75182996 3.1668122 1.625 4.75 C1.53605469 5.86246094 1.44710938 6.97492188 1.35546875 8.12109375 C1.10862164 10.81471113 0.82598964 13.47878853 0.48828125 16.16015625 C-2.02347636 36.86150427 -1.88422476 58.2398808 0 79 C-0.66 79 -1.32 79 -2 79 C-2.06058594 78.01257813 -2.12117188 77.02515625 -2.18359375 76.0078125 C-2.26738281 74.72648437 -2.35117187 73.44515625 -2.4375 72.125 C-2.55931641 70.21074219 -2.55931641 70.21074219 -2.68359375 68.2578125 C-2.79206027 65.11699848 -2.79206027 65.11699848 -4 63 C-4.09848801 60.6033965 -4.13987943 58.236536 -4.1328125 55.83984375 C-4.13376923 55.13477188 -4.13472595 54.42970001 -4.13571167 53.70326233 C-4.13639229 52.21289989 -4.13454621 50.72253448 -4.13037109 49.23217773 C-4.12501318 46.94312942 -4.13032409 44.65427663 -4.13671875 42.36523438 C-4.1360581 40.9192704 -4.13477722 39.47330654 -4.1328125 38.02734375 C-4.13483673 37.33881821 -4.13686096 36.65029266 -4.13894653 35.94090271 C-4.11495764 31.11495764 -4.11495764 31.11495764 -3 30 C-2.81106224 27.22591384 -2.67155482 24.4649116 -2.5625 21.6875 C-2.22405712 14.33824578 -1.45883506 7.22335807 0 0 Z " fill="#C23036" transform="translate(295,263)"/>
<path d="M0 0 C5.77595724 -0.02514145 11.55188107 -0.04306347 17.32788086 -0.05493164 C19.28361569 -0.05989097 21.23934695 -0.06666049 23.19506836 -0.07543945 C33.34354673 -0.11977873 43.46806075 -0.07707767 53.60546875 0.44140625 C54.38215408 0.48039536 55.15883942 0.51938446 55.95906067 0.55955505 C59.71904295 0.77589126 63.3310403 1.13615521 67 2 C66.67 2.66 66.34 3.32 66 4 C63.70819355 3.85638013 61.4165615 3.70997673 59.125 3.5625 C57.84882812 3.48128906 56.57265625 3.40007812 55.2578125 3.31640625 C52.2790046 3.11382214 49.3224526 2.81823161 46.35546875 2.48632812 C41.2403668 1.97099434 36.19206186 1.87097239 31.0546875 1.90234375 C29.71085495 1.90446617 29.71085495 1.90446617 28.33987427 1.90663147 C25.51821347 1.91216559 22.69663624 1.92470511 19.875 1.9375 C17.94531366 1.94252354 16.01562605 1.94708494 14.0859375 1.95117188 C9.3905935 1.96211331 4.69531085 1.97933122 0 2 C0 1.34 0 0.68 0 0 Z " fill="#BC292F" transform="translate(512,67)"/>
<path d="M0 0 C0.495 1.485 0.495 1.485 1 3 C-1.50300592 6.85880079 -4.77008112 9.61344699 -8.26953125 12.5234375 C-9.78656774 13.81788399 -11.21485968 15.21485968 -12.625 16.625 C-15 19 -15 19 -17.375 20.8125 C-19.75773918 22.79811598 -21.52523144 24.7527131 -23.5 27.125 C-26.07858944 30.16062608 -28.00720255 32.0320491 -32 33 C-28.10023279 28.33125463 -24.04785356 23.90872191 -19.7265625 19.62890625 C-19.15795502 19.06171371 -18.58934753 18.49452118 -18.00350952 17.91014099 C-16.21303764 16.12520087 -14.41909516 14.34379744 -12.625 12.5625 C-11.39950677 11.34203061 -10.17424428 10.12132947 -8.94921875 8.90039062 C-5.96880226 5.93091244 -2.98527106 2.96459743 0 0 Z " fill="#FEE1DD" transform="translate(491,244)"/>
<path d="M0 0 C0.99 0.33 1.98 0.66 3 1 C0.44751213 3.55248787 -2.10512083 6.10267616 -4.6875 8.625 C-7.11275676 10.97085755 -7.11275676 10.97085755 -9 14 C-9.66 14 -10.32 14 -11 14 C-12.60480279 15.54775998 -12.60480279 15.54775998 -14.25 17.5625 C-14.86488281 18.28566406 -15.47976563 19.00882813 -16.11328125 19.75390625 C-16.73589844 20.49511719 -17.35851562 21.23632812 -18 22 C-19.14473463 23.33427675 -20.29046728 24.66769833 -21.4375 26 C-22.283125 26.99 -23.12875 27.98 -24 29 C-25.32 28.67 -26.64 28.34 -28 28 C-18.76 18.76 -9.52 9.52 0 0 Z " fill="#FDDEDD" transform="translate(599,137)"/>
<path d="M0 0 C1.32 1.32 2.64 2.64 4 4 C3.34 4 2.68 4 2 4 C1.67 28.09 1.34 52.18 1 77 C0.67 77 0.34 77 0 77 C0 51.59 0 26.18 0 0 Z " fill="#FBD0D1" transform="translate(376,312)"/>
<path d="M0 0 C0.33 0 0.66 0 1 0 C2.18486981 5.17034101 1.90164121 7.77692114 -0.2421875 12.76953125 C-1.12534147 15.36891741 -1.32440609 17.70052534 -1.5 20.4375 C-1.84323214 25.66631301 -3.09157909 30.13892787 -5 35 C-5.33 35 -5.66 35 -6 35 C-6.4586265 27.35622501 -4.73797726 20.41380388 -3 13 C-2.71382813 11.74832031 -2.42765625 10.49664062 -2.1328125 9.20703125 C-1.42956012 6.13616252 -0.71843164 3.06734643 0 0 Z " fill="#C5373D" transform="translate(341,253)"/>
<path d="M0 0 C0.33 0.99 0.66 1.98 1 3 C0.0925 3.7425 -0.815 4.485 -1.75 5.25 C-3.66159266 6.83774637 -5.42629129 8.42629129 -7.1875 10.1875 C-9 12 -9 12 -12 14 C-13.20450304 16.55183404 -13.20450304 16.55183404 -14 19 C-15.32 18.34 -16.64 17.68 -18 17 C-15.77408672 14.77408672 -13.54797113 12.54838575 -11.3203125 10.32421875 C-10.0180075 9.01972132 -8.7185814 7.71228099 -7.4296875 6.39453125 C-5.09942282 4.01297144 -2.72654013 1.91867639 0 0 Z " fill="#C72D34" transform="translate(594,365)"/>
<path d="M0 0 C0.33 0.99 0.66 1.98 1 3 C-1.66666667 5.66666667 -4.33333333 8.33333333 -7 11 C-7.57363281 11.58523438 -8.14726563 12.17046875 -8.73828125 12.7734375 C-11.68025145 15.75950575 -14.51784776 18.63213647 -18 21 C-18.66 20.67 -19.32 20.34 -20 20 C-13.4 13.4 -6.8 6.8 0 0 Z " fill="#F9CECF" transform="translate(594,302)"/>
<path d="M0 0 C0.33 0.99 0.66 1.98 1 3 C0.01 3.33 -0.98 3.66 -2 4 C-2.2475 4.70125 -2.495 5.4025 -2.75 6.125 C-5.07672043 11.476457 -9.08872536 15.2007397 -14.4375 17.4375 C-15.283125 17.623125 -16.12875 17.80875 -17 18 C-11.72898586 11.58930713 -5.90871848 5.81409488 0 0 Z " fill="#C63138" transform="translate(675,284)"/>
<path d="M0 0 C0.33 0.99 0.66 1.98 1 3 C0.46375 3.515625 -0.0725 4.03125 -0.625 4.5625 C-3.05476183 7.05620293 -5.29751243 9.651414 -7.53515625 12.31640625 C-10.6130487 15.85393064 -12.21455617 17.3533184 -17 18 C-11.72898586 11.58930713 -5.90871848 5.81409488 0 0 Z " fill="#C73A42" transform="translate(693,266)"/>
<path d="M0 0 C0.33 1.32 0.66 2.64 1 4 C-0.6953125 6.25390625 -0.6953125 6.25390625 -3.125 8.5625 C-3.91132812 9.32691406 -4.69765625 10.09132812 -5.5078125 10.87890625 C-11.52486188 16 -11.52486188 16 -16 16 C-10.72 10.72 -5.44 5.44 0 0 Z " fill="#C5272F" transform="translate(567,231)"/>
<path d="M0 0 C0.33 0.66 0.66 1.32 1 2 C-4.05352742 7.96348734 -9.41711741 13.53105379 -15 19 C-15.99 18.67 -16.98 18.34 -18 18 C-12.06 12.06 -6.12 6.12 0 0 Z " fill="#FCD8D7" transform="translate(573,323)"/>
<path d="M0 0 C0.33 1.32 0.66 2.64 1 4 C0.45730469 4.45890625 -0.08539063 4.9178125 -0.64453125 5.390625 C-1.35996094 6.00421875 -2.07539063 6.6178125 -2.8125 7.25 C-3.52019531 7.85328125 -4.22789062 8.4565625 -4.95703125 9.078125 C-7.05327496 10.93124557 -7.05327496 10.93124557 -8.59375 13.1875 C-10 15 -10 15 -12.6875 15.75 C-13.450625 15.8325 -14.21375 15.915 -15 16 C-10.30233025 10.33870569 -5.25276628 5.14771096 0 0 Z " fill="#C82F38" transform="translate(479,318)"/>
<path d="M0 0 C-0.34021964 3.17538332 -1.02466604 4.02276865 -3.4375 6.25 C-6 8 -6 8 -8 8 C-8.226875 8.7425 -8.45375 9.485 -8.6875 10.25 C-10.24407532 13.51139591 -12.08518854 14.92894975 -15 17 C-15.66 16.34 -16.32 15.68 -17 15 C-15.71451591 13.66070495 -14.42141845 12.32871357 -13.125 11 C-12.40570312 10.2575 -11.68640625 9.515 -10.9453125 8.75 C-9 7 -9 7 -7 7 C-6.67 6.01 -6.34 5.02 -6 4 C-2.45714286 0 -2.45714286 0 0 0 Z " fill="#C93B41" transform="translate(711,250)"/>
<path d="M0 0 C2.68868378 0.42452902 5.36711445 0.86220411 8.02734375 1.44140625 C16.27504764 3.23193342 24.6195287 4.0861203 33 5 C33 5.33 33 5.66 33 6 C25.74 5.67 18.48 5.34 11 5 C11 4.67 11 4.34 11 4 C9.1128125 3.8453125 9.1128125 3.8453125 7.1875 3.6875 C4.39500343 3.35141192 3.25566879 3.19974124 1 1.4375 C0.67 0.963125 0.34 0.48875 0 0 Z " fill="#BF3037" transform="translate(482,546)"/>
<path d="M0 0 C1.06486707 3.28587554 0.92821001 5.62950178 0.25 9 C0.01023437 10.2684375 0.01023437 10.2684375 -0.234375 11.5625 C-1.07332987 14.23345835 -2.31020271 15.79399831 -4 18 C-4.76681725 20.11264636 -4.76681725 20.11264636 -5.1875 22.25 C-5.455625 23.4875 -5.72375 24.725 -6 26 C-7.171875 24.45703125 -7.171875 24.45703125 -8 22 C-7.20725593 19.40583377 -6.35823856 17.13972084 -5.25 14.6875 C-4.68928365 13.40122707 -4.13196616 12.11346693 -3.578125 10.82421875 C-3.30806641 10.19563965 -3.03800781 9.56706055 -2.75976562 8.91943359 C-1.60428536 6.00028646 -0.80071869 3.03409583 0 0 Z " fill="#FACDCA" transform="translate(733,366)"/>
<path d="M0 0 C0.33 0.99 0.66 1.98 1 3 C-4.61 8.28 -10.22 13.56 -16 19 C-16.66 18.67 -17.32 18.34 -18 18 C-12.06 12.06 -6.12 6.12 0 0 Z " fill="#FFDDDC" transform="translate(566,170)"/>
<path d="M0 0 C3.39581516 -0.0291544 6.79159786 -0.04685068 10.1875 -0.0625 C11.14720703 -0.07087891 12.10691406 -0.07925781 13.09570312 -0.08789062 C14.02705078 -0.09111328 14.95839844 -0.09433594 15.91796875 -0.09765625 C17.19837036 -0.10551147 17.19837036 -0.10551147 18.50463867 -0.11352539 C21.09246747 0.00420677 23.47661953 0.42892956 26 1 C25.67 1.66 25.34 2.32 25 3 C16.64821927 2.47662174 8.3191895 1.92000449 0 1 C0 0.67 0 0.34 0 0 Z " fill="#C53238" transform="translate(553,68)"/>
<path d="M0 0 C6.27 0.33 12.54 0.66 19 1 C19 1.33 19 1.66 19 2 C11.08 2.99 3.16 3.98 -5 5 C-5 4.34 -5 3.68 -5 3 C-3.68 3 -2.36 3 -1 3 C-0.67 2.01 -0.34 1.02 0 0 Z " fill="#C92C33" transform="translate(493,68)"/>
<path d="M0 0 C0.33 1.32 0.66 2.64 1 4 C-7.261959 11.66742597 -7.261959 11.66742597 -12 13 C-8.19524578 8.43969176 -4.25030379 4.14910608 0 0 Z " fill="#C9333D" transform="translate(721,470)"/>
<path d="M0 0 C0.33 1.32 0.66 2.64 1 4 C0.0409375 4.37125 0.0409375 4.37125 -0.9375 4.75 C-1.618125 5.1625 -2.29875 5.575 -3 6 C-3.144375 6.66 -3.28875 7.32 -3.4375 8 C-3.623125 8.66 -3.80875 9.32 -4 10 C-6.4375 11.3125 -6.4375 11.3125 -9 12 C-9.66 11.67 -10.32 11.34 -11 11 C-9.625 9.5 -9.625 9.5 -8 8 C-7.34 8 -6.68 8 -6 8 C-5.7525 7.4225 -5.505 6.845 -5.25 6.25 C-3.83316683 3.6997003 -2.12372463 1.98214299 0 0 Z " fill="#C52B2D" transform="translate(610,188)"/>
<path d="M0 0 C-3.63 3.63 -7.26 7.26 -11 11 C-11.66 10.67 -12.32 10.34 -13 10 C-13 9.34 -13 8.68 -13 8 C-12.01 8 -11.02 8 -10 8 C-10 7.01 -10 6.02 -10 5 C-9.01 5 -8.02 5 -7 5 C-6.814375 3.7934375 -6.814375 3.7934375 -6.625 2.5625 C-6.41875 1.716875 -6.2125 0.87125 -6 0 C-4 -1 -4 -1 0 0 Z " fill="#CA353D" transform="translate(438,298)"/>
<path d="M0 0 C19.88 1.88 19.88 1.88 24 6 C15.90665154 4.72210288 7.92965791 3.05583724 0 1 C0 0.67 0 0.34 0 0 Z " fill="#F9CFD1" transform="translate(468,542)"/>
<path d="M0 0 C0 0.99 0 1.98 0 3 C-1.65002828 4.35386936 -3.3174387 5.68678142 -5 7 C-6.33333333 10 -6.33333333 10 -5 13 C-9 13 -9 13 -12 12 C-8.32167983 7.47384007 -4.58913637 3.60575001 0 0 Z " fill="#FBDBD8" transform="translate(517,379)"/>
<path d="M0 0 C0.66 0.99 1.32 1.98 2 3 C4.56282742 3.72965366 4.56282742 3.72965366 7 4 C7 5.65 7 7.3 7 9 C4 9 4 9 1.25 6.75 C-1 4 -1 4 -0.8125 1.6875 C-0.4103125 0.8521875 -0.4103125 0.8521875 0 0 Z " fill="#C82A34" transform="translate(433,364)"/>
<path d="M0 0 C0.33 0 0.66 0 1 0 C1.33 2.31 1.66 4.62 2 7 C1.34 7 0.68 7 0 7 C-0.66 9.31 -1.32 11.62 -2 14 C-2.66 14 -3.32 14 -4 14 C-3.52372025 12.04096255 -3.04388577 10.08278903 -2.5625 8.125 C-2.29566406 7.03445312 -2.02882813 5.94390625 -1.75390625 4.8203125 C-1 2 -1 2 0 0 Z " fill="#CB3B40" transform="translate(346,239)"/>
<path d="M0 0 C1.51839575 3.92655206 0.43537717 6.71821846 -0.8125 10.625 C-1.16957031 11.77226562 -1.52664063 12.91953125 -1.89453125 14.1015625 C-3 17 -3 17 -5 19 C-5 17.02 -5 15.04 -5 13 C-4.34 13 -3.68 13 -3 13 C-2.86722656 12.14535156 -2.73445312 11.29070312 -2.59765625 10.41015625 C-2.33275391 8.75306641 -2.33275391 8.75306641 -2.0625 7.0625 C-1.88847656 5.96035156 -1.71445312 4.85820312 -1.53515625 3.72265625 C-1 1 -1 1 0 0 Z " fill="#BE2B2A" transform="translate(734,358)"/>
<path d="M0 0 C0.33 0.99 0.66 1.98 1 3 C0.21625 3.2475 -0.5675 3.495 -1.375 3.75 C-4.41464865 5.19745174 -4.69906137 6.02642598 -6 9 C-6.99 9.66 -7.98 10.32 -9 11 C-9.33 10.01 -9.66 9.02 -10 8 C-6.7 5.36 -3.4 2.72 0 0 Z " fill="#C32632" transform="translate(412,151)"/>
<path d="M0 0 C0.75 1.625 0.75 1.625 1 4 C-1.16762723 8.01412451 -2.85962051 10.16951644 -7 12 C-2.96127563 3.55353075 -2.96127563 3.55353075 0 0 Z " fill="#C52E37" transform="translate(369,196)"/>
<path d="M0 0 C0.33 0.66 0.66 1.32 1 2 C-3.56033396 6.33231726 -6.8203352 7.82799461 -13 9 C-10.57542028 6.31765765 -7.92489603 4.63143275 -4.8125 2.8125 C-3.91144531 2.28269531 -3.01039063 1.75289062 -2.08203125 1.20703125 C-1.39496094 0.80871094 -0.70789063 0.41039062 0 0 Z " fill="#C43134" transform="translate(439,133)"/>
<path d="M0 0 C2.64 0 5.28 0 8 0 C8 0.66 8 1.32 8 2 C9.093125 2.28875 10.18625 2.5775 11.3125 2.875 C15 4 15 4 18 6 C13.95295419 5.27595226 10.10929598 4.16553713 6.1875 2.9375 C5.02605469 2.57527344 3.86460937 2.21304688 2.66796875 1.83984375 C1.78753906 1.56269531 0.90710938 1.28554687 0 1 C0 0.67 0 0.34 0 0 Z " fill="#C63840" transform="translate(606,77)"/>
<path d="M0 0 C1.32 0.66 2.64 1.32 4 2 C1.03 4.31 -1.94 6.62 -5 9 C-5.33 7.68 -5.66 6.36 -6 5 C-5.01 5 -4.02 5 -3 5 C-2.87625 4.360625 -2.7525 3.72125 -2.625 3.0625 C-2.41875 2.381875 -2.2125 1.70125 -2 1 C-1.34 0.67 -0.68 0.34 0 0 Z " fill="#FBDCD8" transform="translate(411,148)"/>
<path d="M0 0 C0.33 1.32 0.66 2.64 1 4 C-3.39453125 8.00390625 -3.39453125 8.00390625 -5 9 C-5.99 8.67 -6.98 8.34 -8 8 C-5.36 5.36 -2.72 2.72 0 0 Z " fill="#C93539" transform="translate(575,383)"/>
<path d="M0 0 C0.33 0.99 0.66 1.98 1 3 C-1.10078511 6.07614963 -2.88621595 7.92414397 -6 10 C-6.99 9.67 -7.98 9.34 -9 9 C-6.03 6.03 -3.06 3.06 0 0 Z " fill="#FCD8D6" transform="translate(491,244)"/>
<path d="M0 0 C0.33 0 0.66 0 1 0 C1.37169941 4.3364931 0.31392722 6.39027353 -2 10 C-2.165 10.7425 -2.33 11.485 -2.5 12.25 C-2.665 12.8275 -2.83 13.405 -3 14 C-3.99 14.33 -4.98 14.66 -6 15 C-4.36041242 9.76727367 -2.61047965 4.84803364 0 0 Z " fill="#C53337" transform="translate(356,217)"/>
<path d="M0 0 C0.33 1.32 0.66 2.64 1 4 C0.01 4 -0.98 4 -2 4 C-2.66 5.32 -3.32 6.64 -4 8 C-5.65 8 -7.3 8 -9 8 C-6.14723863 5.06799526 -3.34920216 2.35684596 0 0 Z " fill="#C32A32" transform="translate(695,495)"/>
<path d="M0 0 C0.33 0.66 0.66 1.32 1 2 C-0.76227632 5.61730402 -2.64326421 7.80075931 -6 10 C-6.33 9.01 -6.66 8.02 -7 7 C-4.69 4.69 -2.38 2.38 0 0 Z " fill="#C62F34" transform="translate(708,483)"/>
<path d="M0 0 C0.99 0.33 1.98 0.66 3 1 C0.03 3.97 -2.94 6.94 -6 10 C-6.33 9.01 -6.66 8.02 -7 7 C-6.34 7 -5.68 7 -5 7 C-4.9175 6.401875 -4.835 5.80375 -4.75 5.1875 C-3.77590452 2.34638817 -2.59505753 1.45017921 0 0 Z " fill="#FEE6E3" transform="translate(465,329)"/>
<path d="M0 0 C-1.50223584 4.20626034 -4.28550034 5.73900021 -8 8 C-8.66 7.67 -9.32 7.34 -10 7 C-8.90536178 5.82438854 -7.79892814 4.6597511 -6.6875 3.5 C-6.07261719 2.8503125 -5.45773437 2.200625 -4.82421875 1.53125 C-3 0 -3 0 0 0 Z " fill="#CC3A42" transform="translate(517,283)"/>
<path d="M0 0 C1.32 0.66 2.64 1.32 4 2 C0.25 5 0.25 5 -2 5 C-2 5.66 -2 6.32 -2 7 C-3.32 6.67 -4.64 6.34 -6 6 C-4.02 4.02 -2.04 2.04 0 0 Z " fill="#FED8D6" transform="translate(680,217)"/>
<path d="M0 0 C1.0169313 2.65498232 1.13022151 3.69155375 0.00390625 6.359375 C-0.47175781 7.14828125 -0.94742188 7.9371875 -1.4375 8.75 C-1.91058594 9.54921875 -2.38367188 10.3484375 -2.87109375 11.171875 C-3.24363281 11.77515625 -3.61617187 12.3784375 -4 13 C-4.66 13 -5.32 13 -6 13 C-4.31326082 8.50202887 -2.18326108 4.27113698 0 0 Z " fill="#FBD4D4" transform="translate(720,399)"/>
<path d="M0 0 C0.33 0.66 0.66 1.32 1 2 C-1.31 4.64 -3.62 7.28 -6 10 C-6.66 9.34 -7.32 8.68 -8 8 C-5.33333333 5.33333333 -2.66666667 2.66666667 0 0 Z " fill="#C72028" transform="translate(399,162)"/>
<path d="M0 0 C0.33 0.66 0.66 1.32 1 2 C-0.2739589 4.03833424 -1.61061923 6.03852126 -3 8 C-3.66 8 -4.32 8 -5 8 C-5.33 9.32 -5.66 10.64 -6 12 C-6.66 12 -7.32 12 -8 12 C-6.49087042 7.01987239 -3.44338151 3.75740058 0 0 Z " fill="#FCD0D4" transform="translate(346,159)"/>
<path d="M0 0 C-1.4258086 3.45195767 -3.09746334 5.1014256 -6.125 7.25 C-7.21167969 8.03117187 -7.21167969 8.03117187 -8.3203125 8.828125 C-8.87460937 9.21484375 -9.42890625 9.6015625 -10 10 C-10.66 9.67 -11.32 9.34 -12 9 C-10.38050958 7.49405319 -8.75424026 5.99539332 -7.125 4.5 C-6.22007812 3.6646875 -5.31515625 2.829375 -4.3828125 1.96875 C-2 0 -2 0 0 0 Z " fill="#FCD2D9" transform="translate(388,119)"/>
<path d="M0 0 C0.33 0.99 0.66 1.98 1 3 C-1.35968744 5.09749995 -2.54616994 5.96905704 -5.75 6.1875 C-6.86375 6.0946875 -6.86375 6.0946875 -8 6 C-5.51047079 3.33264727 -3.36591866 1.44253657 0 0 Z " fill="#C42A30" transform="translate(680,507)"/>
<path d="M0 0 C0.66 0.33 1.32 0.66 2 1 C1.54625 1.598125 1.0925 2.19625 0.625 2.8125 C-0.63295913 4.50590652 -1.82984724 6.24477086 -3 8 C-4.32 7.67 -5.64 7.34 -7 7 C-4.69 4.69 -2.38 2.38 0 0 Z " fill="#FBD1D0" transform="translate(675,458)"/>
<path d="M0 0 C0.66 0.33 1.32 0.66 2 1 C0.85821872 2.66944521 -0.28852905 4.3354948 -1.4375 6 C-2.07558594 6.928125 -2.71367188 7.85625 -3.37109375 8.8125 C-3.90863281 9.534375 -4.44617188 10.25625 -5 11 C-5.33 11 -5.66 11 -6 11 C-6 9.35 -6 7.7 -6 6 C-4.68 5.67 -3.36 5.34 -2 5 C-2 4.01 -2 3.02 -2 2 C-1.34 2 -0.68 2 0 2 C0 1.34 0 0.68 0 0 Z " fill="#C12B34" transform="translate(707,419)"/>
<path d="M0 0 C0.33 1.32 0.66 2.64 1 4 C-0.6875 6.3125 -0.6875 6.3125 -3 8 C-4.32 7.67 -5.64 7.34 -7 7 C-4.69 4.69 -2.38 2.38 0 0 Z " fill="#C72B30" transform="translate(449,348)"/>
<path d="M0 0 C0.33 0.99 0.66 1.98 1 3 C-1.64 5.31 -4.28 7.62 -7 10 C-7.66 9.67 -8.32 9.34 -9 9 C-6.03 6.03 -3.06 3.06 0 0 Z " fill="#F3BFC3" transform="translate(523,212)"/>
<path d="M0 0 C4.28477792 2.30718811 7.72291137 4.32966073 11 8 C9.68 8 8.36 8 7 8 C7 7.34 7 6.68 7 6 C5.68 6 4.36 6 3 6 C2.67 4.68 2.34 3.36 2 2 C1.34 2 0.68 2 0 2 C0 1.34 0 0.68 0 0 Z " fill="#C1282D" transform="translate(654,145)"/>
<path d="M0 0 C1.32 0 2.64 0 4 0 C4 0.66 4 1.32 4 2 C5.3921875 2.0928125 5.3921875 2.0928125 6.8125 2.1875 C10 3 10 3 11.875 5.5625 C12.431875 6.7690625 12.431875 6.7690625 13 8 C8.27626146 6.37621488 4.05818166 3.89006982 0 1 C0 0.67 0 0.34 0 0 Z " fill="#F9CBC7" transform="translate(644,138)"/>
<path d="M0 0 C0.86172797 2.41283832 1.08724082 3.69465714 0.375 6.1875 C-1 8 -1 8 -3.625 8.75 C-4.40875 8.8325 -5.1925 8.915 -6 9 C-4 6 -2 3 0 0 Z " fill="#C42F36" transform="translate(736,451)"/>
<path d="M0 0 C0.33 0.66 0.66 1.32 1 2 C0.06553465 4.03144641 -0.93224776 6.03533587 -2 8 C-3.32 7.67 -4.64 7.34 -6 7 C-4.02 4.69 -2.04 2.38 0 0 Z " fill="#D03C44" transform="translate(525,272)"/>
<path d="M0 0 C0.66 0.33 1.32 0.66 2 1 C-1.465 3.97 -1.465 3.97 -5 7 C-5.33 6.01 -5.66 5.02 -6 4 C-3.94766315 1.7522025 -2.99332739 0.9977758 0 0 Z " fill="#C32428" transform="translate(566,394)"/>
<path d="M0 0 C1 2 1 2 0.375 3.9375 C-1.3792518 6.5688777 -3.16320216 7.65252103 -6 9 C-6.66 8.67 -7.32 8.34 -8 8 C-5.36 5.36 -2.72 2.72 0 0 Z " fill="#C73437" transform="translate(458,339)"/>
<path d="M0 0 C0.33 0.66 0.66 1.32 1 2 C-0.125 4.5625 -0.125 4.5625 -2 7 C-4.6875 7.8125 -4.6875 7.8125 -7 8 C-6.02133662 6.85373678 -5.04205413 5.70800212 -4.0625 4.5625 C-3.51722656 3.92441406 -2.97195313 3.28632813 -2.41015625 2.62890625 C-1.63204305 1.73008851 -0.84063472 0.84063472 0 0 Z " fill="#CA3842" transform="translate(490,307)"/>
<path d="M0 0 C0.33 0.66 0.66 1.32 1 2 C-0.125 4.5625 -0.125 4.5625 -2 7 C-4.6875 7.8125 -4.6875 7.8125 -7 8 C-6.02133662 6.85373678 -5.04205413 5.70800212 -4.0625 4.5625 C-3.51722656 3.92441406 -2.97195313 3.28632813 -2.41015625 2.62890625 C-1.63204305 1.73008851 -0.84063472 0.84063472 0 0 Z " fill="#CB3940" transform="translate(498,299)"/>
<path d="M0 0 C-0.34879632 3.25543229 -1.02133261 4.01873107 -3.5625 6.25 C-4.366875 6.8275 -5.17125 7.405 -6 8 C-6.33 7.01 -6.66 6.02 -7 5 C-2.25 0 -2.25 0 0 0 Z " fill="#C32D32" transform="translate(711,250)"/>
<path d="M0 0 C0 3.99904969 -1.72586967 5.80200422 -4 9 C-5.32 8.67 -6.64 8.34 -8 8 C-5.36 5.36 -2.72 2.72 0 0 Z " fill="#C9383E" transform="translate(591,207)"/>
<path d="M0 0 C1.32 0 2.64 0 4 0 C4.33 0.99 4.66 1.98 5 3 C5.99 3.66 6.98 4.32 8 5 C7.67 5.99 7.34 6.98 7 8 C4.35247996 5.42215154 2.05567935 3.08351902 0 0 Z " fill="#C71F2D" transform="translate(720,148)"/>
<path d="M0 0 C0.33 0.66 0.66 1.32 1 2 C-3.82142857 8.29464286 -3.82142857 8.29464286 -8 9 C-7.04270084 7.87411986 -6.08412105 6.7493285 -5.125 5.625 C-4.59132813 4.99851563 -4.05765625 4.37203125 -3.5078125 3.7265625 C-2.38567993 2.44163349 -1.20628025 1.20628025 0 0 Z " fill="#FAD4D3" transform="translate(373,130)"/>
<path d="M0 0 C2.31 0.33 4.62 0.66 7 1 C7.33 2.65 7.66 4.3 8 6 C5.36 4.68 2.72 3.36 0 2 C0 1.34 0 0.68 0 0 Z " fill="#C42E38" transform="translate(656,97)"/>
<path d="M0 0 C0 3.69418201 -1.28179295 5.77836178 -3 9 C-4.32 8.34 -5.64 7.68 -7 7 C-4.69 4.69 -2.38 2.38 0 0 Z " fill="#CA4143" transform="translate(583,375)"/>
<path d="M0 0 C0.33 0.99 0.66 1.98 1 3 C-1.31 4.98 -3.62 6.96 -6 9 C-4.86634892 4.46539569 -3.35806626 3.09975347 0 0 Z " fill="#FFE6E4" transform="translate(566,170)"/>
<path d="M0 0 C0.66 0 1.32 0 2 0 C1.54965877 1.62723299 1.08944646 3.25173664 0.625 4.875 C0.36976563 5.77992188 0.11453125 6.68484375 -0.1484375 7.6171875 C-1 10 -1 10 -3 12 C-3.33 11.01 -3.66 10.02 -4 9 C-3.04504326 7.30712215 -2.0409066 5.64142963 -1 4 C-0.30420546 1.80869466 -0.30420546 1.80869466 0 0 Z " fill="#FEDBDC" transform="translate(766,391)"/>
<path d="M0 0 C0.33 0.99 0.66 1.98 1 3 C-1.97 5.475 -1.97 5.475 -5 8 C-5.66 7.67 -6.32 7.34 -7 7 C-4.69 4.69 -2.38 2.38 0 0 Z " fill="#FBCDCE" transform="translate(503,232)"/>
<path d="M0 0 C0.33 0 0.66 0 1 0 C1.33 2.31 1.66 4.62 2 7 C-0.475 8.485 -0.475 8.485 -3 10 C-2.01 6.7 -1.02 3.4 0 0 Z " fill="#F8CBCB" transform="translate(310,219)"/>
<path d="M0 0 C0.825 0.144375 1.65 0.28875 2.5 0.4375 C6.32686278 1.05253152 10.15216707 1.53560637 14 2 C14 2.33 14 2.66 14 3 C12.22992286 3.08114106 10.45877902 3.13925505 8.6875 3.1875 C7.70136719 3.22230469 6.71523438 3.25710938 5.69921875 3.29296875 C3 3 3 3 1.14453125 1.48828125 C0.76683594 0.99714844 0.38914062 0.50601563 0 0 Z " fill="#D04D4F" transform="translate(482,546)"/>
<path d="M0 0 C0 3.19610552 -0.54671542 4.41717626 -2 7.1875 C-2.37125 7.90292969 -2.7425 8.61835938 -3.125 9.35546875 C-3.41375 9.89816406 -3.7025 10.44085938 -4 11 C-5.04528847 7.76591956 -5.06464549 7.15699619 -3.6875 3.8125 C-2 1 -2 1 0 0 Z " fill="#FCDDDA" transform="translate(761,407)"/>
<path d="M0 0 C1.98 0.66 3.96 1.32 6 2 C6 2.99 6 3.98 6 5 C6.66 5.33 7.32 5.66 8 6 C5 6 5 6 3.61328125 4.6875 C2.40885417 3.125 1.20442708 1.5625 0 0 Z " fill="#C12A30" transform="translate(385,320)"/>
<path d="M0 0 C0 3.16880694 -0.2058242 4.43689172 -2 7 C-4.625 7.75 -4.625 7.75 -7 8 C-5.625 6 -5.625 6 -4 4 C-3.34 4 -2.68 4 -2 4 C-1.34 2.68 -0.68 1.36 0 0 Z " fill="#CE4047" transform="translate(506,291)"/>
<path d="M0 0 C2.18975773 3.28463659 2.99806563 6.20696275 4 10 C2.68 9.34 1.36 8.68 0 8 C0 5.36 0 2.72 0 0 Z " fill="#F6C4C0" transform="translate(765,221)"/>
<path d="M0 0 C0.33 1.32 0.66 2.64 1 4 C-1.375 5.5625 -1.375 5.5625 -4 7 C-4.66 6.67 -5.32 6.34 -6 6 C-4.02 4.02 -2.04 2.04 0 0 Z " fill="#CB3D43" transform="translate(610,188)"/>
<path d="M0 0 C2.31 1.65 4.62 3.3 7 5 C6.67 5.66 6.34 6.32 6 7 C5.01 6.67 4.02 6.34 3 6 C3 5.34 3 4.68 3 4 C2.34 4 1.68 4 1 4 C0.67 2.68 0.34 1.36 0 0 Z " fill="#C2272E" transform="translate(384,499)"/>
<path d="M0 0 C1.45606519 4.52092968 0.27032841 7.51648796 -1 12 C-2.1875 10.5 -2.1875 10.5 -3 8 C-2.27101296 5.21175762 -1.1843275 2.62334908 0 0 Z " fill="#F6BEBE" transform="translate(728,380)"/>
<path d="M0 0 C0.99 0.33 1.98 0.66 3 1 C-0.465 3.97 -0.465 3.97 -4 7 C-4 5.68 -4 4.36 -4 3 C-3.01 3 -2.02 3 -1 3 C-0.67 2.01 -0.34 1.02 0 0 Z " fill="#FEE5E1" transform="translate(479,315)"/>
<path d="M0 0 C2.56616632 3.84924948 2.55097676 6.4349304 3 11 C1.5 10 1.5 10 0 8 C-0.27345479 5.28153765 -0.13491285 2.74322801 0 0 Z " fill="#C7363B" transform="translate(733,254)"/>
<path d="M0 0 C1.98 0.99 1.98 0.99 4 2 C4 2.99 4 3.98 4 5 C4.66 5 5.32 5 6 5 C5.67 6.32 5.34 7.64 5 9 C3.35 6.03 1.7 3.06 0 0 Z " fill="#C12B35" transform="translate(743,178)"/>
<path d="M0 0 C1.98 0 3.96 0 6 0 C6.66 1.65 7.32 3.3 8 5 C5.36 3.68 2.72 2.36 0 1 C0 0.67 0 0.34 0 0 Z " fill="#FCD1D5" transform="translate(634,132)"/>
<path d="M0 0 C-3.44450737 2.29633824 -5.93812283 2.54016485 -10 3 C-9.67 2.01 -9.34 1.02 -9 0 C-5.93109813 -1.53445094 -3.29905734 -0.54984289 0 0 Z " fill="#C83C3F" transform="translate(481,74)"/>
<path d="M0 0 C1.65 0 3.3 0 5 0 C2.63707344 2.52588702 1.33537489 3.88820837 -2 5 C-2 4.01 -2 3.02 -2 2 C-1.34 2 -0.68 2 0 2 C0 1.34 0 0.68 0 0 Z " fill="#C22526" transform="translate(652,473)"/>
<path d="M0 0 C0.75 1.75 0.75 1.75 1 4 C-0.9375 6.25 -0.9375 6.25 -3 8 C-3.33 7.34 -3.66 6.68 -4 6 C-2.68 4.02 -1.36 2.04 0 0 Z " fill="#F9C9C6" transform="translate(712,414)"/>
<path d="M0 0 C0 3.10551666 -0.5393715 4.35261084 -2 7 C-3.32 6.67 -4.64 6.34 -6 6 C-4.02 4.02 -2.04 2.04 0 0 Z " fill="#C43339" transform="translate(554,404)"/>
<path d="M0 0 C0.66 0.99 1.32 1.98 2 3 C1.3125 5.625 1.3125 5.625 0 8 C-0.99 8.33 -1.98 8.66 -3 9 C-2.01 6.03 -1.02 3.06 0 0 Z " fill="#C73940" transform="translate(765,398)"/>
<path d="M0 0 C0.66 0.66 1.32 1.32 2 2 C-0.97 4.475 -0.97 4.475 -4 7 C-4 4 -4 4 -2 1.8125 C-1.34 1.214375 -0.68 0.61625 0 0 Z " fill="#FEE4E0" transform="translate(456,338)"/>
<path d="M0 0 C0.33 0.99 0.66 1.98 1 3 C-1.40339772 5.76390737 -2.16263678 6.04065919 -6 7 C-4.02 4.69 -2.04 2.38 0 0 Z " fill="#F6C5C7" transform="translate(594,302)"/>
<path d="M0 0 C5.875 4.625 5.875 4.625 7 8 C6.34 8 5.68 8 5 8 C4.67 7.34 4.34 6.68 4 6 C3.01 5.67 2.02 5.34 1 5 C0.67 3.35 0.34 1.7 0 0 Z " fill="#FAC9C3" transform="translate(718,147)"/>
<path d="M0 0 C0.33 0.99 0.66 1.98 1 3 C-0.65 4.32 -2.3 5.64 -4 7 C-4.66 6.67 -5.32 6.34 -6 6 C-4.02 4.02 -2.04 2.04 0 0 Z " fill="#FEDEDD" transform="translate(362,141)"/>
<path d="M0 0 C0.99 0.33 1.98 0.66 3 1 C0.47211993 3.79872437 -1.20411134 5.45773019 -5 6 C-3.35 4.02 -1.7 2.04 0 0 Z " fill="#FDCCCB" transform="translate(599,137)"/>
<path d="M0 0 C1.32 0.33 2.64 0.66 4 1 C1.03 3.475 1.03 3.475 -2 6 C-2 4.68 -2 3.36 -2 2 C-1.34 2 -0.68 2 0 2 C0 1.34 0 0.68 0 0 Z " fill="#C33034" transform="translate(362,137)"/>
<path d="M0 0 C1.4800841 0.11362262 2.95910074 0.24122908 4.4375 0.375 C5.26121094 0.44460937 6.08492187 0.51421875 6.93359375 0.5859375 C7.95646484 0.79089844 7.95646484 0.79089844 9 1 C9.33 1.66 9.66 2.32 10 3 C8.02 3 6.04 3 4 3 C4 2.34 4 1.68 4 1 C2.68 0.67 1.36 0.34 0 0 Z " fill="#C73238" transform="translate(562,110)"/>
<path d="M0 0 C7.75 0.75 7.75 0.75 10 3 C3.47692308 3.36923077 3.47692308 3.36923077 1.0625 1.5 C0.5365625 0.7575 0.5365625 0.7575 0 0 Z " fill="#EEADB0" transform="translate(592,74)"/>
</svg>
