<svg xmlns="http://www.w3.org/2000/svg" width="2880" height="1920" viewBox="0 0 76200 50800"><g/><g/><path style="fill:#f05b72;fill-opacity:1;stroke:none" d="M0-1h76201v50802H0z"/><path d="M38100 5953.125a6086.977 6085.417 0 0 1 0 12170.833 6086.977 6085.417 0 0 1 0-12170.833zm-1542.034 6004.277h3084.068L38100 8650.993Zm3692.766 1298.223h-4301.464l-1085.511 2322.6a4798.567 4797.337 0 0 0 6472.486 0zm-1339.135-5933.282 3327.547 7140.223a4798.567 4797.337 0 0 0-3327.547-7140.223Zm-1623.194 0a4798.567 4797.337 0 0 0-3327.548 7140.223zm32548.365 18317.576c-434.631-67.179-1039.244-369.485-1222.457-855.006h-712.504v117.054h-142.502v-184.232h-264.644v-183.217h-209.68v-2499.875c0-104.839-84.484-189.322-190.341-189.322h-830.578c-104.841 0-189.322 84.483-189.322 189.322v605.63l-999.543 2077.462v184.232h-4315.746v-157.769c-1288.619 0-1840.299-999.542-2236.248-1736.475H53919.4v-131.305h-1026.006v-21.376c0-103.821-84.484-189.322-188.307-189.322h-162.859c-24.429-76.341-94.66-131.305-179.141-131.305l-6750.479-210.698c-64.127 0-119.091 31.554-153.699 78.376h-242.25c-104.841 0-189.325 86.519-189.325 190.34v73.287h-393.914v-440.736c0-105.857-84.482-190.341-189.32-190.341h-958.829c-18.322-89.572-97.716-157.769-193.395-157.769-86.518 0-158.787 54.965-186.269 131.305h-2378.75c-15.269-21.375-39.698-35.624-67.177-35.624h-363.382c-27.479 0-51.908 14.249-66.159 35.624h-122.145v-65.144l-197.464-131.304v289.074h303.324v133.341c0 45.803 37.661 83.464 82.444 83.464h81.431v60.054c0 18.321 15.269 31.554 31.554 31.554h11.197c-60.055 11.196-99.75 36.643-122.144 73.286h-110.948v499.771H25507.746s-185.251-57-342.002 25.448c-156.752 83.464-263.627 184.232-263.627 184.232l-602.577 684.005h-344.038l-315.538 447.86h265.663l-507.915 578.147h-257.52l8.143 81.43c-691.13 47.839-3948.296 659.576-4428.728 760.345-499.772 105.858-973.079 158.786-1368.01 0-393.913-157.769-947.631-447.861-1761.924-367.449-815.31 78.376-8787.225 947.632-8893.083 1183.776-13.232 30.535-27.483 57.001-42.75 81.43-24.43-68.198-70.233-117.054-141.484-81.43-119.09 60.054-236.144 157.769-103.822 816.328 130.287 657.541 709.452 5129.019 735.916 5576.88 25.447 446.842 290.092 474.324 393.914 394.931-3.054-18.321-5.09-37.661-8.143-57 97.715 36.643 255.484 33.589 507.914-75.322 553.719-236.145 14838.431-5103.573 15417.595-5287.807l578.147-22.392v279.912c0 71.25 40.715 133.341 97.715 165.912l-18.321-2.035c-79.394 236.145-131.305 499.772 104.84 841.775 237.162 342.002 105.858 894.702-51.911 1394.474-158.787 499.771-684.005 1973.641-1026.008 2841.878-342.002 868.239 25.446 1183.777 315.538 1419.921 288.056 236.144 1314.064 393.913 1894.246 263.627 578.148-131.305 578.148-527.254 578.148-631.076 0-105.857 0-394.931 79.393-658.559 78.376-263.626 1183.777-2815.413 1394.474-3315.184 201.538-482.469 453.969-743.042 732.863-974.097 317.574 505.879 630.058 762.381 1029.061 763.399 396.968 0 1343.581-25.447 1948.193-25.447 537.432 0 869.256-325.717 1048.4-684.005h507.914l73.288 183.215-78.377 684.005 130.288 52.93 254.464-920.15h30.539c104.838 0 189.322-85.501 189.322-189.323v-1145.098h245.306v368.468h460.073c611.738 3776.278 2698.359 8157.166 7714.396 11199.563l260.575-412.235 1474.885-2325.82 499.772-787.827c-4059.246-2773.683-5432.346-6023.724-5869.009-8962.299l3476.008-141.483v-3.054c0 103.823 84.485 189.323 188.304 189.323h521.148v73.286c0 103.823 84.484 188.306 189.322 188.306 0 0 469.236 0 752.203-54.966 285.001-57 1162.402-338.949 1400.582-390.86 236.143-53.946 709.451-80.411 1104.382-80.411 393.914 0 6624.264-209.68 6624.264-209.68 73.284 0 137.411-43.769 167.947-105.859h226.983c49.877 0 95.679-19.337 129.27-51.909h191.358v-316.557h5313.254v132.322h474.323v-132.322h7603.448v105.857h526.238v-372.538c35.623 29.519 63.108 68.197 73.287 108.912h242.25v-315.539h500.79v-156.751h142.502v130.287H69850v-290.091c-3.053 0-6.107 2.035-13.232 2.035zm-4157.977-1495.243c0-103.821 80.409-610.718 610.716-610.718h568.987c103.822 0 188.306 84.482 188.306 190.34v515.039c0 103.823-84.484 189.324-188.306 189.324h-988.346c-105.857 0-191.357-85.501-191.357-189.324zm-7549.502 73.287v684.004h-4497.946v-420.377h-737.949v-237.163H53919.4v-51.911h2893.788v25.447zm-2394.019-1077.918c73.287 0 132.324 59.035 132.324 132.322 0 71.249-59.037 130.287-132.324 130.287-73.284 0-132.323-59.038-132.323-130.287 0-73.287 59.039-132.322 132.323-132.322zm-578.146 0c71.25 0 130.286 59.035 130.286 132.322 0 71.249-59.036 130.287-130.286 130.287-73.287 0-132.324-59.038-132.324-130.287 0-73.287 59.037-132.322 132.324-132.322zm-580.184 0c73.287 0 132.324 59.035 132.324 132.322 0 71.249-59.037 130.287-132.324 130.287-71.249 0-131.305-59.038-131.305-130.287 0-73.287 60.056-132.322 131.305-132.322zm-14018.032-730.827h10.181c17.304 0 30.536-13.233 30.536-31.554v-60.054h60.055c45.802 0 83.462-37.661 83.462-83.464v-133.341h1810.782c-586.29 278.895-1102.346 358.288-1875.925 376.609-23.41-34.608-60.052-57-119.091-68.196zm-9446.8 7650.269c-607.665 0-1555.297 26.465-1948.193 26.465-296.198 1.019-556.772-192.376-871.292-699.272 160.823-172.019 160.823-297.216 160.823-407.146 0-130.287-209.68-261.591-209.68-261.591 103.822 0 192.375-35.625 201.537-119.091l5.089-624.968c135.376 90.59 278.895 157.768 345.056 192.376 158.787 77.358 316.556 103.821 420.378 577.13 105.858 474.325 632.094 816.326 1053.49 920.148 230.038 59.037 289.074-77.357 52.929-130.286-517.075-115.019-816.327-631.077-842.792-815.309-25.447-184.234 52.929-632.094 316.556-922.186l499.772-25.446 45.803-122.144 1610.262-67.18v1815.871c0 30.535 10.179 60.054 23.411 86.519-153.698 314.519-420.378 575.093-865.185 576.11zm20519.133-5581.969c0 103.822-84.481 188.304-188.306 188.304H49663.71c-105.86 0-190.341-84.482-190.341-188.304v-75.322h-1341.546v75.322c0 103.822-84.485 188.304-189.323 188.304h-1778.209c-103.823 0-189.323-84.482-189.323-188.304v-75.322h-209.682v-209.68h209.682v-99.751c0-105.857 85.5-190.339 189.323-190.339H47942.5c104.838 0 189.323 84.482 189.323 190.339v99.751h1341.546v-99.751c0-105.857 84.481-190.339 190.341-190.339h1779.225c103.825 0 188.306 84.482 188.306 190.339v99.751h604.613v209.68h-604.613zm1394.474 1688.637v-157.768h605.628v-211.716h4497.946v315.538h209.68v53.946zm13075.488-211.716v211.716h-7287.911v-53.946h290.092v-103.822h1656.067v-211.716h4315.746v157.768z"/></svg>